<svg width="127" height="17" viewBox="0 0 127 17" fill="none" xmlns="http://www.w3.org/2000/svg">
<path fill-rule="evenodd" clip-rule="evenodd" d="M10.5 3.49219L6.59766 16.9102H4.60547L0 0H2.20312L5.58984 13.8047H5.68359L9.49219 0H11.625L15.4336 13.8047H15.5273L18.9141 0H21.1172L16.5117 16.9102H14.5195L10.6172 3.49219H10.5ZM37.0396 16.9102L35.3404 12.0703H28.6138L26.9146 16.9102H24.6998L30.9342 0H33.0201L39.2545 16.9102H37.0396ZM31.942 2.56641L29.2349 10.2773H34.7193L32.0123 2.56641H31.942ZM47.5597 16.9102H45.4738V0H47.5246L56.7824 13.2773H56.8878V0H58.9738V16.9102H56.923L47.6652 3.67969H47.5597V16.9102ZM66.5407 0H72.2243C77.24 0 80.2048 3.12891 80.2048 8.44922C80.2048 13.7812 77.2517 16.9102 72.2243 16.9102H66.5407V0ZM68.6501 1.89844V15.0117H72.0837C75.9157 15.0117 78.0485 12.668 78.0485 8.47266C78.0485 4.24219 75.9275 1.89844 72.0837 1.89844H68.6501ZM97.5804 15.0117V16.9102H87.1038V0H97.5804V1.89844H89.2132V7.32422H97.1468V9.19922H89.2132V15.0117H97.5804ZM106.753 1.875V8.35547H110.796C112.964 8.35547 114.194 7.18359 114.194 5.10938C114.194 3.08203 112.882 1.875 110.702 1.875H106.753ZM106.753 10.2188V16.9102H104.643V0H110.983C114.241 0 116.374 1.99219 116.374 5.03906C116.374 7.39453 115.097 9.22266 112.975 9.89062L116.89 16.9102H114.417L110.796 10.2188H106.753Z" fill="#333333"/>
<circle cx="123.473" cy="13.9102" r="3" fill="#EF5D64"/>
</svg>
